<?xml version="1.0" encoding="UTF-8" standalone="no"?>
<svg width="28.501007" height="20.665001" viewBox="0 0 28.501007 20.665001" fill="none" version="1.1" id="svg7"
   sodipodi:docname="Time right info panel.svg" xmlns:inkscape="http://www.inkscape.org/namespaces/inkscape"
   xmlns:sodipodi="http://sodipodi.sourceforge.net/DTD/sodipodi-0.dtd" xmlns="http://www.w3.org/2000/svg"
   xmlns:svg="http://www.w3.org/2000/svg">
   <defs id="defs7" />
   <sodipodi:namedview id="namedview7" pagecolor="#ffffff" bordercolor="#000000" borderopacity="0.25"
      inkscape:showpageshadow="2" inkscape:pageopacity="0.0" inkscape:pagecheckerboard="0"
      inkscape:deskcolor="#d1d1d1" />
   <mask id="mask0_68_329" maskUnits="userSpaceOnUse" x="130" y="-1" width="32" height="33">
      <path opacity="1" d="m 162,-0.5 h -32 v 32 h 32 z" fill="#22BC72" id="path2" />
   </mask>
   <g mask="url(#mask0_68_329)" id="g6" transform="translate(-131.75,-5.4999995)">
      <path fill-rule="evenodd" clip-rule="evenodd"
         d="M 158.418,13.1118 C 151.826,6.86185 141.677,6.53335 134.712,12.1239 l -0.002,0.0024 v 0 c -0.383,0.3049 -0.758,0.6353 -1.126,0.9851 L 131.75,11.179 c 0.415,-0.3938 0.847,-0.775 1.296,-1.1337 7.995,-6.41626 19.638,-6.04038 27.205,1.1332 z"
         fill="#e1e0dc" id="path3" />
      <path fill-rule="evenodd" clip-rule="evenodd"
         d="m 135.725,15.7547 c 5.676,-5.6716 14.875,-5.6716 20.551,0 l -1.883,1.8845 c -4.636,-4.6323 -12.149,-4.6323 -16.785,0 z"
         fill="#e1e0dc" id="path4" />
      <path fill-rule="evenodd" clip-rule="evenodd"
         d="m 139.725,20.0991 c 3.464,-3.4645 9.083,-3.4636 12.551,-6e-4 l -1.883,1.885 c -2.428,-2.425 -6.361,-2.4241 -8.784,-7e-4 z"
         fill="#e1e0dc" id="path5" />
      <path fill-rule="evenodd" clip-rule="evenodd"
         d="m 147.665,24.501 c 0,-0.92 -0.744,-1.668 -1.664,-1.668 -0.92,0 -1.668,0.748 -1.668,1.668 0,0.92 0.748,1.664 1.668,1.664 0.92,0 1.664,-0.744 1.664,-1.664 z"
         fill="#ff0000" id=" path6" />
   </g>
</svg>