<?xml version="1.0" encoding="UTF-8" standalone="no"?>
<svg
   width="49.034485"
   height="33.2164"
   viewBox="0 0 49.034485 33.2164"
   fill="none"
   version="1.1"
   id="svg13"
   sodipodi:docname="Light controls.svg"
   inkscape:export-filename="bend_beam.svg"
   inkscape:export-xdpi="96"
   inkscape:export-ydpi="96"
   xmlns:inkscape="http://www.inkscape.org/namespaces/inkscape"
   xmlns:sodipodi="http://sodipodi.sourceforge.net/DTD/sodipodi-0.dtd"
   xmlns="http://www.w3.org/2000/svg"
   xmlns:svg="http://www.w3.org/2000/svg">
  <defs
     id="defs13" />
  <sodipodi:namedview
     id="namedview13"
     pagecolor="#ffffff"
     bordercolor="#000000"
     borderopacity="0.25"
     inkscape:showpageshadow="2"
     inkscape:pageopacity="0.0"
     inkscape:pagecheckerboard="0"
     inkscape:deskcolor="#d1d1d1" />
  <path
     d="M 34.903481,0.42889099 C 33.789481,0.14390499 32.449481,0 30.936481,0 c -4.336,0 -7.406,0.90292799 -9.147,2.680568 -1.298,1.33746 -1.386,2.69467 -1.386,3.03045 v 21.79718 c 0,0.333 0.088,1.6902 1.386,3.0277 1.741,1.7804 4.811,2.6805 9.147,2.6805 1.513,0 2.853,-0.1439 3.967,-0.4289 6.8,-1.4983 14.131,-8.1009 14.131,-16.1793 0,-8.07272 -7.331,-14.67537 -14.131,-16.17930701 z m -0.713,29.26890701 -0.054,0.0141 c -0.866,0.2229 -1.936,0.3358 -3.2,0.3358 -6.834,0 -7.33,-2.3899 -7.353,-2.5592 V 5.730768 c 0,-0.00283 0,-0.00847 0,-0.01411 l 0.012,0.04796 -0.012,-0.05925 c 0.065,-0.3132 0.768,-2.53384 7.353,-2.53384 1.264,0 2.345,0.11287 3.2,0.33578 l 0.065,0.01129 c 5.634,1.23305 11.656,6.7861 11.656,13.0896 0,6.3064 -6.033,11.8594 -11.667,13.0896 z"
     fill="#22bc73"
     id="path9" />
  <path
     d="m 17.356481,24.644698 c -0.11,-0.3724 -0.488,-0.5982 -0.866,-0.4994 l -5.406,1.4447 -7.0399997,1.8764 -3.52399998,0.9396 c -0.378,0.1015 -0.595,0.4881 -0.497,0.8634 l 0.325,1.2387 c 0.107,0.3753 0.496,0.601 0.86299998,0.4994 l 5.147,-1.3713 5.1909997,-1.3826 5.632,-1.5068 c 0.378,-0.0987 0.607,-0.4853 0.5,-0.8606 z"
     fill="#22bc73"
     id="path10" />
  <path
     d="m 0.34848132,12.799798 c 0.107,0.3753 0.496,0.601 0.86299998,0.4994 l 4.295,-1.1428 3.1,-0.8267 8.5749997,-2.28835 c 0.378,-0.10158 0.607,-0.48815 0.5,-0.86343 l -0.325,-1.24152 c -0.11,-0.37528 -0.488,-0.59819 -0.866,-0.49943 l -1.546,0.41478 -12.0339997,3.20825 -2.38999998,0.6377 c -0.378,0.0987 -0.595,0.4881 -0.497,0.8634 z"
     fill="#22bc73"
     id="path11" />
  <path
     d="m 17.356481,18.741698 c -0.11,-0.3725 -0.488,-0.5982 -0.866,-0.4966 l -2.291,0.6094 -0.141,0.0367 -1.775,0.4741 -6.5289997,1.7409 -5.23399998,1.3967 c -0.378,0.1016 -0.595,0.4882 -0.497,0.8635 l 0.325,1.2387 c 0.107,0.3752 0.496,0.601 0.86299998,0.4994 l 4.035,-1.0751 4.238,-1.1286 7.6969997,-2.0542 c 0.378,-0.1015 0.607,-0.4881 0.5,-0.8634 z"
     fill="#22bc73"
     id="path12" />
  <path
     d="m 17.356481,12.838798 c -0.11,-0.3724 -0.488,-0.5981 -0.866,-0.4966 l -5.46,1.4532 -3.5999997,0.9622 -6.90999998,1.8425 c -0.378,0.0988 -0.595,0.4881 -0.497,0.8606 l 0.325,1.2415 c 0.107,0.3753 0.496,0.601 0.86299998,0.4995 l 8.101,-2.1614 4.4639997,-1.1879 3.405,-0.9086 c 0.378,-0.1016 0.607,-0.4882 0.5,-0.8634 z"
     fill="#22bc73"
     id="path13" />
</svg>
