<?xml version="1.0" encoding="UTF-8" standalone="no"?>
<svg
   width="42.4431"
   height="33.796101"
   viewBox="0 0 42.4431 33.796101"
   fill="none"
   version="1.1"
   id="svg12"
   sodipodi:docname="Brake and tire controls.svg"
   xmlns:inkscape="http://www.inkscape.org/namespaces/inkscape"
   xmlns:sodipodi="http://sodipodi.sourceforge.net/DTD/sodipodi-0.dtd"
   xmlns="http://www.w3.org/2000/svg"
   xmlns:svg="http://www.w3.org/2000/svg">
  <defs
     id="defs12" />
  <sodipodi:namedview
     id="namedview12"
     pagecolor="#ffffff"
     bordercolor="#000000"
     borderopacity="0.25"
     inkscape:showpageshadow="2"
     inkscape:pageopacity="0.0"
     inkscape:pagecheckerboard="0"
     inkscape:deskcolor="#d1d1d1" />
  <path
     d="m 22.752698,21.0031 c 0,0.7059 -0.4823,1.2802 -1.0763,1.2802 h -0.9776 c -0.5941,0 -1.0763,-0.5743 -1.0763,-1.2802 V 7.5899898 c 0,-0.70803 0.4822,-1.28237 1.0763,-1.28237 h 0.9776 c 0.594,0 1.0763,0.57434 1.0763,1.28237 z"
     fill="#e52a2d"
     id="path5" />
  <path
     d="m 22.787698,26.2096 c 0,0.7059 -0.4822,1.2802 -1.0784,1.2802 h -1.0105 c -0.5941,0 -1.0763,-0.5743 -1.0763,-1.2802 v -1.2034 c 0,-0.7058 0.4822,-1.2801 1.0763,-1.2801 h 1.0105 c 0.5962,0 1.0784,0.5743 1.0784,1.2801 z"
     fill="#e52a2d"
     id="path6" />
  <path
     d="m 21.220598,1.3823198 c -8.5553,0 -15.5147996,6.95978 -15.5147996,15.5175802 0,8.5556 6.9594996,15.5153 15.5147996,15.5153 8.5575,0 15.5165,-6.9597 15.5165,-15.5153 0,-8.5578002 -6.959,-15.5175802 -15.5165,-15.5175802 z m 0,28.1196802 c -6.9486,0 -12.6016996,-5.6533 -12.6016996,-12.6021 0,-6.9510302 5.6530996,-12.6043302 12.6016996,-12.6043302 6.9507,0 12.6035,5.6533 12.6035,12.6043302 0,6.9488 -5.6528,12.6021 -12.6035,12.6021 z"
     fill="#e52a2d"
     id="path7" />
  <path
     d="m 9.3618984,31.1766 c -0.2631,-0.1995 -6.4488,-4.9935 -6.4488,-14.2768 0,-9.2833502 6.1857,-14.0795602 6.4488,-14.2790302 0.6421996,-0.48225 0.7715996,-1.39416 0.2893,-2.03642597 -0.4822,-0.6444627 -1.3941,-0.775978 -2.0385,-0.293727 C 7.3035984,0.52516583 -1.6113281e-6,6.1127098 -1.6113281e-6,16.8998 c 0,10.7871 7.3036000113281,16.3746 7.6127000113281,16.607 0.263,0.195 0.5677,0.2893 0.8702,0.2893 0.4428,0 0.879,-0.2017 1.1661,-0.5809 0.4822996,-0.6423 0.3528996,-1.5542 -0.2871,-2.0386 z"
     fill="#e52a2d"
     id="path8" />
  <path
     d="m 34.828098,0.29064283 c -0.642,-0.480059 -1.552,-0.3485455 -2.034,0.291533 -0.482,0.64227397 -0.353,1.55417397 0.285,2.03861397 0.265,0.19948 6.449,4.99131 6.449,14.2768102 0,9.2834 -6.184,14.0796 -6.449,14.279 -0.64,0.4823 -0.771,1.3942 -0.289,2.0364 0.287,0.3815 0.723,0.5831 1.166,0.5831 0.305,0 0.611,-0.0942 0.872,-0.2893 0.312,-0.2324 7.615,-5.8221 7.615,-16.6092 0,-10.7870602 -7.303,-16.37240717 -7.615,-16.60695717 z"
     fill="#e52a2d"
     id="path9" />
</svg>
