<?xml version="1.0" encoding="UTF-8" standalone="no"?>
<svg width="47.210506" height="32.5" viewBox="0 0 47.210506 32.5" fill="none" version="1.1" id="svg13"
   sodipodi:docname="Light controls.svg" inkscape:export-filename="bend_beam.svg" inkscape:export-xdpi="96"
   inkscape:export-ydpi="96" xmlns:inkscape="http://www.inkscape.org/namespaces/inkscape"
   xmlns:sodipodi="http://sodipodi.sourceforge.net/DTD/sodipodi-0.dtd" xmlns="http://www.w3.org/2000/svg"
   xmlns:svg="http://www.w3.org/2000/svg">
   <defs id="defs13" />
   <sodipodi:namedview id="namedview13" pagecolor="#ffffff" bordercolor="#000000" borderopacity="0.25"
      inkscape:showpageshadow="2" inkscape:pageopacity="0.0" inkscape:pagecheckerboard="0"
      inkscape:deskcolor="#d1d1d1" />
   <path
      d="m 17.132402,7.42009 -0.3252,-1.20248 c -0.0929,-0.36075 -0.47,-0.57938 -0.8362,-0.481 L 8.8192019,7.64418 c 0.2077,-0.22136 0.4591,-0.45093 0.7734,-0.72149 1.0795001,-0.95378 2.5662001,-2.25738 2.5662001,-4.75252 0,-0.8472 -0.6915,-1.53589 -1.5387,-1.53589 -0.8499001,0 -1.5303001,0.68869 -1.5303001,1.53589 0,1.05763 -0.5028,1.54136 -1.5276,2.44595 -0.9757,0.85814 -2.2737,2.00049 -2.5251,4.0365 L 0.50330193,9.8606 c -0.3553,0.0956 -0.5766,0.4728 -0.481,0.8362 l 0.3226,1.2025 c 0.0956,0.3608 0.4727,0.5794 0.82789997,0.4837 l 4.1567,-1.1095 c 0.4208,1.1177 1.186,1.8994 1.8664,2.5197 l -6.69259997,1.7846 c -0.3553,0.0984 -0.5766,0.4728 -0.481,0.8363 l 0.3226,1.1997 c 0.0956,0.3635 0.4727,0.5821 0.82789997,0.4838 l 7.8541,-2.0935 c 0.0328,0.1722 0.0629,0.3553 0.0629,0.5603 0,1.0604 -0.5028,1.5414 -1.5276,2.4487 -0.1995,0.1749 -0.4209,0.3635 -0.6286,0.5684 L 0.50330193,21.295 c -0.3553,0.0984 -0.5766,0.4728 -0.481,0.8363 l 0.3226,1.1998 c 0.0956,0.3634 0.4727,0.5793 0.82789997,0.4837 l 3.908,-1.0412 c -0.0547,0.3088 -0.0848,0.6367 -0.0848,0.992 0,0.7515 0.1367,1.3965 0.3553,1.954 l -4.84799997,1.2927 c -0.3553,0.0984 -0.5766,0.4728 -0.481,0.8363 l 0.3226,1.2024 c 0.0956,0.3608 0.4727,0.5794 0.82789997,0.481 l 5.8018,-1.5441 c 0.1995,0.1886 0.399,0.3635 0.5876,0.5275 1.0248,0.9073 1.5276,1.3883 1.5276,2.4459 0,0.85 0.6804,1.5387 1.5303001,1.5387 0.8472,0 1.5387,-0.6887 1.5387,-1.5387 0,-1.8392 -0.8063,-3.0307 -1.6644,-3.9135 l 6.1571,-1.6397 c 0.3552,-0.0984 0.5766,-0.4728 0.4809,-0.8363 l -0.3252,-1.1997 c -0.0929,-0.3635 -0.47,-0.5821 -0.8362,-0.4865 l -7.6027001,2.0306 c -0.1995,-0.328 -0.3033,-0.6833 -0.3033,-1.1506 0,-0.9101 0.3662,-1.3938 1.1204,-2.0852 l 7.4661001,-1.9896 c 0.3552,-0.0984 0.5766,-0.4755 0.4809,-0.8362 l -0.3252,-1.1998 c -0.0929,-0.3635 -0.47,-0.5821 -0.8362,-0.4837 l -4.0747,1.085 c 0.1667,-0.4947 0.2625,-1.0549 0.2625,-1.6917 0,-0.4947 -0.0629,-0.9429 -0.1668,-1.3501 l 4.6595,-1.2407 c 0.3552,-0.0984 0.5766,-0.4728 0.4809,-0.8363 l -0.3252,-1.2025 c -0.0929,-0.3607 -0.47,-0.5793 -0.8362,-0.4809 l -5.2798,1.4074 c -0.3662,-0.4017 -0.7515001,-0.7433 -1.0986001,-1.0467 -0.5957,-0.5247 -1.0166,-0.9073 -1.257,-1.3419 L 16.651502,8.25362 c 0.3552,-0.09292 0.5766,-0.47006 0.4809,-0.83353 z"
      fill="#22BC72" id="path1" />
   <path
      d="M 33.524602,0.4154 C 32.445102,0.142108 31.157902,0 29.690402,0 c -4.1976,0 -7.1819,0.87453 -8.868,2.59899 -1.2571,1.2954 -1.3309,2.6072 -1.3309,2.93241 v 21.1117 c 0,0.3252 0.0738,1.637 1.3309,2.9324 1.6861,1.7245 4.6704,2.599 8.868,2.599 1.4675,0 2.7547,-0.1421 3.8342,-0.4154 6.5861,-1.4539 13.6859,-7.8489 13.6859,-15.6732 0,-7.81886 -7.0998,-14.21386 -13.6859,-15.6705 z m -0.6805,28.3484 -0.0629,0.0137 c -0.828,0.2159 -1.8747,0.3252 -3.0908,0.3252 -6.6162,0 -7.1108,-2.3147 -7.13,-2.4815 V 5.55053 c 0,-0.00273 0,-0.0082 0,-0.01366 l 0.011,0.04646 -0.011,-0.06013 c 0.0629,-0.30062 0.7434,-2.45141 7.13,-2.45141 1.2161,0 2.2627,0.10931 3.1017,0.32521 l 0.052,0.01367 c 5.4547,1.19154 11.3002,6.56993 11.3002,12.67523 0,6.108 -5.8455,11.4864 -11.3002,12.6779 z"
      fill="#22bc73" id="path2" />
</svg>