<svg width="26" height="26" viewBox="0 0 26 26" fill="none" xmlns="http://www.w3.org/2000/svg">
<path d="M0.0762813 26V0.079999H20.9563C21.8683 0.079999 22.7083 0.307999 23.4763 0.763999C24.2443 1.22 24.8563 1.832 25.3123 2.6C25.7683 3.344 25.9963 4.172 25.9963 5.084V20.996C25.9963 21.908 25.7683 22.748 25.3123 23.516C24.8563 24.26 24.2443 24.86 23.4763 25.316C22.7083 25.772 21.8683 26 20.9563 26H0.0762813ZM5.22428 21.212H20.7403C20.8603 21.212 20.9683 21.176 21.0643 21.104C21.1603 21.008 21.2083 20.9 21.2083 20.78V5.3C21.2083 5.18 21.1603 5.084 21.0643 5.012C20.9683 4.916 20.8603 4.868 20.7403 4.868H5.22428C5.10428 4.868 4.99628 4.916 4.90028 5.012C4.82828 5.084 4.79228 5.18 4.79228 5.3V20.78C4.79228 20.9 4.82828 21.008 4.90028 21.104C4.99628 21.176 5.10428 21.212 5.22428 21.212Z" fill="#37BF8E"/>
</svg>
