<?xml version="1.0" encoding="UTF-8" standalone="no"?>
<svg
   width="47.000404"
   height="32"
   viewBox="0 0 47.000404 32"
   fill="none"
   version="1.1"
   id="svg13"
   sodipodi:docname="Light controls.svg"
   inkscape:export-filename="bend_beam.svg"
   inkscape:export-xdpi="96"
   inkscape:export-ydpi="96"
   xmlns:inkscape="http://www.inkscape.org/namespaces/inkscape"
   xmlns:sodipodi="http://sodipodi.sourceforge.net/DTD/sodipodi-0.dtd"
   xmlns="http://www.w3.org/2000/svg"
   xmlns:svg="http://www.w3.org/2000/svg">
  <defs
     id="defs13" />
  <sodipodi:namedview
     id="namedview13"
     pagecolor="#ffffff"
     bordercolor="#000000"
     borderopacity="0.25"
     inkscape:showpageshadow="2"
     inkscape:pageopacity="0.0"
     inkscape:pagecheckerboard="0"
     inkscape:deskcolor="#d1d1d1" />
  <path
     d="M -2.6000977e-6,6 H 16.000397 V 4 H -2.6000977e-6 Z"
     fill="#5245ea"
     id="path3" />
  <path
     d="M -2.6000977e-6,12 H 16.000397 V 9 H -2.6000977e-6 Z"
     fill="#5245ea"
     id="path4" />
  <path
     d="M -2.6000977e-6,17 H 16.000397 V 15 H -2.6000977e-6 Z"
     fill="#5245ea"
     id="path5" />
  <path
     d="M -2.6000977e-6,23 H 16.000397 V 20 H -2.6000977e-6 Z"
     fill="#5245ea"
     id="path6" />
  <path
     d="M -2.6000977e-6,28 H 16.000397 V 26 H -2.6000977e-6 Z"
     fill="#5245ea"
     id="path7" />
  <path
     d="M 33.175397,0.41318 C 32.084397,0.13864 30.784397,0 29.302397,0 c -4.24,0 -7.258,0.86986 -8.95,2.5824 -1.278,1.28848 -1.352,2.59599 -1.352,2.91947 V 26.5008 c 0,0.3208 0.074,1.6283 1.352,2.9168 1.692,1.7153 4.71,2.5824 8.95,2.5824 1.482,0 2.782,-0.1386 3.873,-0.4132 6.653,-1.4434 13.825,-7.8043 13.825,-15.5868 0,-7.7771 -7.172,-14.13795 -13.825,-15.58682 z m -0.687,28.19712 -0.064,0.0135 c -0.836,0.2148 -1.894,0.3235 -3.122,0.3235 -6.686,0 -7.183,-2.3024 -7.202,-2.4655 V 5.5209 c 0,-0.00272 0,-0.00816 0,-0.0136 l 0.011,0.04621 -0.011,-0.05708 c 0.071,-0.30173 0.751,-2.44104 7.202,-2.44104 1.228,0 2.286,0.10873 3.133,0.32347 l 0.053,0.01088 c 5.51,1.1879 11.411,6.53756 11.411,12.61026 0,6.0754 -5.901,11.4251 -11.411,12.6103 z"
     fill="#5245ea"
     id="path8" />
</svg>
