<?xml version="1.0" encoding="UTF-8" standalone="no"?>
<svg
   width="105.6"
   height="105.6"
   viewBox="0 0 105.6 105.6"
   fill="none"
   version="1.1"
   id="svg1"
   sodipodi:docname="Left trun signal glow.svg"
   inkscape:version="1.3.2 (091e20e, 2023-11-25)"
   xmlns:inkscape="http://www.inkscape.org/namespaces/inkscape"
   xmlns:sodipodi="http://sodipodi.sourceforge.net/DTD/sodipodi-0.dtd"
   xmlns="http://www.w3.org/2000/svg"
   xmlns:svg="http://www.w3.org/2000/svg">
  <sodipodi:namedview
     id="namedview1"
     pagecolor="#ffffff"
     bordercolor="#000000"
     borderopacity="0.25"
     inkscape:showpageshadow="2"
     inkscape:pageopacity="0.0"
     inkscape:pagecheckerboard="0"
     inkscape:deskcolor="#d1d1d1"
     showguides="true"
     inkscape:zoom="4.0934579"
     inkscape:cx="53.5"
     inkscape:cy="53.5"
     inkscape:window-width="2560"
     inkscape:window-height="1387"
     inkscape:window-x="168"
     inkscape:window-y="59"
     inkscape:window-maximized="0"
     inkscape:current-layer="svg1" />
  <g
     filter="url(#filter0_f_72_610)"
     id="g1"
     transform="translate(-0.50004899,-0.49980399)">
    <path
       fill-rule="evenodd"
       clip-rule="evenodd"
       d="m 8.80005,97.7998 v -49 c 10e-6,-22.0914 17.90865,-40 40.00005,-40 L 97.8,8.79981 V 26.7998 H 48.8001 c -3.3011,0 -6.4324,0.727 -9.2424,2.0297 L 94.364,83.6358 81.6361,96.3638 27.7284,42.4561 c -0.6038,2.0087 -0.9283,4.1383 -0.9283,6.3437 l -10e-5,49 z"
       fill="#01ff86"
       id="path1" />
  </g>
  <defs
     id="defs1">
    <filter
       id="filter0_f_72_610"
       x="0.500049"
       y="0.49980399"
       width="105.6"
       height="105.6"
       filterUnits="userSpaceOnUse"
       color-interpolation-filters="sRGB">
      <feFlood
         flood-opacity="0"
         result="BackgroundImageFix"
         id="feFlood1" />
      <feBlend
         mode="normal"
         in="SourceGraphic"
         in2="BackgroundImageFix"
         result="shape"
         id="feBlend1" />
      <feGaussianBlur
         stdDeviation="4.15"
         result="effect1_foregroundBlur_72_610"
         id="feGaussianBlur1" />
    </filter>
  </defs>
  <path
     fill-rule="evenodd"
     clip-rule="evenodd"
     d="m 8.3000242,97.299997 v -49 c 1e-5,-22.0914 17.9086498,-39.9999977 40.0000498,-39.9999957 l 48.9999,4e-6 V 26.299997 h -48.9999 c -3.8313,0 -7.4338,0.9793 -10.5708,2.7013 l 55.1347,55.1347 -12.7279,12.728 -53.3205,-53.3205 c -0.3376,1.5317 -0.5155,3.1233 -0.5155,4.7565 l -10e-5,49 z"
     fill="#00ff86"
     id="path1-1" />
</svg>
