<?xml version="1.0" encoding="UTF-8" standalone="no"?>
<svg width="42.4426" height="33.796299" viewBox="0 0 42.4426 33.796299" fill="none" version="1.1" id="svg12"
   sodipodi:docname="Brake and tire controls.svg" xmlns:inkscape="http://www.inkscape.org/namespaces/inkscape"
   xmlns:sodipodi="http://sodipodi.sourceforge.net/DTD/sodipodi-0.dtd" xmlns="http://www.w3.org/2000/svg"
   xmlns:svg="http://www.w3.org/2000/svg">
   <defs id="defs12" />
   <sodipodi:namedview id="namedview12" pagecolor="#ffffff" bordercolor="#000000" borderopacity="0.25"
      inkscape:showpageshadow="2" inkscape:pageopacity="0.0" inkscape:pagecheckerboard="0"
      inkscape:deskcolor="#d1d1d1" />
   <path
      d="m 21.5203,8.4536097 c -1.7361,0 -3.1696,0.16001 -4.2283,0.34414 V 26.3428 h 2.2161 v -7.0343 c 0.4537,0.0789 1.1069,0.1337 1.8127,0.1337 2.089,0 3.9762,-0.6597 5.1336,-1.9509 0.857,-0.9228 1.3086,-2.1876 1.3086,-3.8207 0,-1.6067 -0.5787,-2.8978 -1.484,-3.7395603 -1.0083,-0.94915 -2.5931,-1.47743 -4.7587,-1.47743 z M 21.3208,17.5966 c -0.7299,0 -1.4598,-0.0526 -1.8127,-0.1579 v -7.0079 c 0.377,-0.0789 1.0828,-0.1578 2.0626,-0.1578 2.4177,0 4.0025,1.1333 4.0025,3.5292 0,2.4243 -1.6089,3.7944 -4.2524,3.7944 z"
      fill="#e52a2d" id="path1" />
   <path
      d="m 21.2202,1.3823197 c -8.5552,0 -15.51463,6.95969 -15.51463,15.5151803 0,8.5577 6.95943,15.5174 15.51463,15.5174 8.5574,0 15.5169,-6.9597 15.5169,-15.5174 0,-8.5554903 -6.9595,-15.5151803 -15.5169,-15.5151803 z m 0,28.1193803 c -6.9485,0 -12.60154,-5.6533 -12.60154,-12.6042 0,-6.9487303 5.65304,-12.6019703 12.60154,-12.6019703 6.9507,0 12.6038,5.65324 12.6038,12.6019703 0,6.9509 -5.6531,12.6042 -12.6038,12.6042 z"
      fill="#e52a2d" id="path2" />
   <path
      d="M 9.36182,31.1763 C 9.09878,30.9769 2.91311,26.1829 2.91311,16.8996 2.91311,7.6163797 9.09878,2.8202197 9.36182,2.6207397 10.0041,2.1384897 10.1334,1.2266097 9.65117,0.58434767 9.16894,-0.06011003 8.25708,-0.19163733 7.61265,0.29060967 7.30358,0.52296467 0,6.1126497 0,16.8996 c 0,10.7892 7.30358,16.3745 7.61265,16.6069 0.26303,0.1951 0.5677,0.2893 0.87019,0.2893 0.44278,0 0.87899,-0.2016 1.16614,-0.5809 0.48222,-0.6422 0.35292,-1.5563 -0.28716,-2.0386 z"
      fill="#e52a2d" id="path3" />
   <path
      d="m 34.8277,0.29112367 c -0.6422,-0.480055 -1.5519,-0.3485291 -2.0341,0.291543 -0.4823,0.64226303 -0.3529,1.55414303 0.2849,2.03858303 0.2653,0.19948 6.4488,4.99344 6.4488,14.2744503 0,9.2855 -6.1835,14.0816 -6.4488,14.2811 -0.64,0.4823 -0.7715,1.3942 -0.2893,2.0364 0.2871,0.3814 0.7233,0.5831 1.1661,0.5831 0.3047,0 0.6116,-0.0943 0.8724,-0.2893 0.3113,-0.2324 7.6149,-5.8221 7.6149,-16.6113 0,-10.7869303 -7.3036,-16.37222133 -7.6149,-16.60457633 z"
      fill="#e52a2d" id="path4" />
</svg>