<?xml version="1.0" encoding="UTF-8" standalone="no"?>
<svg
   width="112.2"
   height="112.2"
   viewBox="0 0 112.2 112.2"
   fill="none"
   version="1.1"
   id="svg1"
   sodipodi:docname="Right turn signal glow.svg"
   xmlns:inkscape="http://www.inkscape.org/namespaces/inkscape"
   xmlns:sodipodi="http://sodipodi.sourceforge.net/DTD/sodipodi-0.dtd"
   xmlns="http://www.w3.org/2000/svg"
   xmlns:svg="http://www.w3.org/2000/svg">
  <sodipodi:namedview
     id="namedview1"
     pagecolor="#ffffff"
     bordercolor="#000000"
     borderopacity="0.25"
     inkscape:showpageshadow="2"
     inkscape:pageopacity="0.0"
     inkscape:pagecheckerboard="0"
     inkscape:deskcolor="#d1d1d1" />
  <g
     filter="url(#filter0_f_72_605)"
     id="g1"
     transform="translate(-0.59995103,-0.199804)">
    <path
       fill-rule="evenodd"
       clip-rule="evenodd"
       d="M 101.2,100.8 V 51.7998 c 0,-22.0914 -17.9087,-40 -40.0001,-40 H 12.2 v 18 h 48.9999 c 2.2055,0 4.3351,0.3245 6.3437,0.9284 L 12.636,85.6358 25.3639,98.3638 81.1702,42.5575 c 1.3027,2.81 2.0297,5.9412 2.0297,9.2423 V 100.8 Z"
       fill="#01ff86"
       id="path1" />
  </g>
  <defs
     id="defs1">
    <filter
       id="filter0_f_72_605"
       x="0.59995103"
       y="0.19980399"
       width="112.2"
       height="112.2"
       filterUnits="userSpaceOnUse"
       color-interpolation-filters="sRGB">
      <feFlood
         flood-opacity="0"
         result="BackgroundImageFix"
         id="feFlood1" />
      <feBlend
         mode="normal"
         in="SourceGraphic"
         in2="BackgroundImageFix"
         result="shape"
         id="feBlend1" />
      <feGaussianBlur
         stdDeviation="5.8"
         result="effect1_foregroundBlur_72_605"
         id="feGaussianBlur1" />
    </filter>
  </defs>
  <path
     fill-rule="evenodd"
     clip-rule="evenodd"
     d="M 100.59998,100.6 V 51.599998 c 0,-22.091405 -17.908612,-40.000002 -40.000013,-40 l -48.999949,4e-6 2e-6,17.999991 h 48.999947 c 2.2055,0 4.335101,0.3245 6.343701,0.9284 L 12.03606,85.435988 24.763969,98.163993 80.570269,42.357688 c 1.302701,2.81 2.029701,5.9412 2.029701,9.24231 V 100.6 Z"
     fill="#01ff86"
     id="path1-1"
     inkscape:export-filename="right_signal.svg"
     inkscape:export-xdpi="96"
     inkscape:export-ydpi="96" />
</svg>
