<?xml version="1.0" encoding="UTF-8" standalone="no"?>
<svg
   width="40"
   height="33.504791"
   viewBox="0 0 40 33.504791"
   fill="none"
   version="1.1"
   id="svg12"
   sodipodi:docname="Brake and tire controls.svg"
   xmlns:inkscape="http://www.inkscape.org/namespaces/inkscape"
   xmlns:sodipodi="http://sodipodi.sourceforge.net/DTD/sodipodi-0.dtd"
   xmlns="http://www.w3.org/2000/svg"
   xmlns:svg="http://www.w3.org/2000/svg">
  <defs
     id="defs12" />
  <sodipodi:namedview
     id="namedview12"
     pagecolor="#ffffff"
     bordercolor="#000000"
     borderopacity="0.25"
     inkscape:showpageshadow="2"
     inkscape:pageopacity="0.0"
     inkscape:pagecheckerboard="0"
     inkscape:deskcolor="#d1d1d1" />
  <path
     d="m 22.189998,18.178192 c 0,0.6159 -0.5,1.1132 -1.113,1.1132 h -1.602 c -0.613,0 -1.111,-0.4973 -1.111,-1.1132 V 4.6171123 c 0,-0.61362 0.498,-1.11321 1.111,-1.11321 h 1.602 c 0.613,0 1.113,0.49959 1.113,1.11321 z"
     fill="#fab639"
     id="path10" />
  <path
     d="m 22.189998,24.136492 c 0,0.6159 -0.5,1.1132 -1.113,1.1132 h -1.602 c -0.613,0 -1.111,-0.4973 -1.111,-1.1132 v -1.599 c 0,-0.6136 0.498,-1.1132 1.111,-1.1132 h 1.602 c 0.613,0 1.113,0.4996 1.113,1.1132 z"
     fill="#fab639"
     id="path11" />
  <path
     d="m 32.825998,0.27377031 c -0.607,-0.4539379 -1.464,-0.3284887 -1.918,0.273721 -0.456,0.60677099 -0.333,1.46673099 0.269,1.92295099 0.249,0.18705 6.079,4.70362 6.079,13.4539497 0,8.7457 -5.828,13.2668 -6.079,13.4561 -0.073,0.0548 -0.137,0.1164 -0.196,0.1803 H 9.0189984 c -0.059,-0.0639 -0.123,-0.1255 -0.196,-0.1803 -0.246,-0.187 -6.077,-4.7036 -6.077,-13.4539 0,-8.7479697 5.828,-13.2690997 6.077,-13.4561497 0.604,-0.45622 0.728,-1.3139 0.274,-1.92066799 -0.454,-0.6067716 -1.314,-0.7299419 -1.921,-0.276004 -0.294,0.218986 -7.175999986914,5.48601199 -7.175999986914,15.65282169 0,10.1669 6.881999986914,15.4317 7.175999986914,15.6507 0.246,0.1847 0.534,0.2737 0.819,0.2737 h 0.411 c 0.025,0.0433 0.047,0.0844 0.066,0.1186 0.333,0.6113 0.837,1.5352 1.9269996,1.5352 1.093,0 1.595,-0.9239 1.928,-1.5352 0.02,-0.0342 0.043,-0.0753 0.066,-0.1186 h 0.821 c 0.023,0.0433 0.046,0.0844 0.066,0.1186 0.331,0.6113 0.835,1.5352 1.928,1.5352 1.09,0 1.594,-0.9239 1.927,-1.5352 0.018,-0.0342 0.041,-0.0753 0.066,-0.1186 h 0.819 c 0.025,0.0433 0.046,0.0844 0.066,0.1186 0.333,0.6113 0.835,1.5352 1.928,1.5352 1.092,0 1.596,-0.9239 1.929,-1.5352 0.019,-0.0342 0.041,-0.0753 0.067,-0.1186 h 0.818 c 0.026,0.0433 0.048,0.0844 0.067,0.1186 0.333,0.6113 0.837,1.5352 1.929,1.5352 1.091,0 1.595,-0.9239 1.928,-1.5352 0.02,-0.0342 0.041,-0.0753 0.066,-0.1186 h 0.821 c 0.023,0.0433 0.046,0.0844 0.066,0.1186 0.333,0.6113 0.837,1.5352 1.93,1.5352 1.09,0 1.594,-0.9239 1.927,-1.5352 0.021,-0.0342 0.044,-0.0753 0.067,-0.1186 h 0.365 c 0,0 0.006,0 0.009,0 h 0.004 0.032 v -0.0023 c 0.276,-0.0091 0.55,-0.0958 0.787,-0.2714 0.292,-0.219 7.174,-5.4861 7.174,-15.6529 0,-10.1668997 -6.882,-15.43163569 -7.174,-15.65062169 z"
     fill="#fab639"
     id="path12" />
</svg>
