<?xml version="1.0" encoding="UTF-8" standalone="no"?>
<!-- Created with Inkscape (http://www.inkscape.org/) -->

<svg
   width="18.520832mm"
   height="40.216667mm"
   viewBox="0 0 18.520832 40.216667"
   version="1.1"
   id="svg1"
   xmlns="http://www.w3.org/2000/svg"
   xmlns:svg="http://www.w3.org/2000/svg">
  <defs
     id="defs1" />
  <g
     id="layer1"
     transform="translate(-69.203729,-87.323125)">
    <path
       d="m 69.20373,107.43331 c 0,-3.94785 0.75829,-7.445906 2.27435,-10.505018 1.52321,-3.051969 3.67798,-5.412582 6.47462,-7.089511 2.7313,-1.633802 5.89439,-2.475971 9.50357,-2.515658 0.14499,0 0.26829,0.118798 0.26829,0.262731 v 1.979348 c 0,0.143933 -0.11615,0.259027 -0.26115,0.259027 h -0.73289 c -2.41565,0 -4.37065,1.943365 -4.37065,4.336786 V 120.7019 c 0,2.39686 1.95871,4.33678 4.37065,4.33678 h 0.73289 c 0.145,0 0.26115,0.1151 0.26115,0.25903 v 1.97935 c 0,0.14393 -0.1233,0.26273 -0.26829,0.26273 -3.60548,-0.0397 -6.77227,-0.88186 -9.50357,-2.51566 -2.79638,-1.67322 -4.95115,-4.03754 -6.47462,-7.08951 -1.51606,-3.05911 -2.27435,-6.55346 -2.27435,-10.50502 z"
       fill="#22bc72"
       id="path35"
       style="stroke-width:0.264583" />
  </g>
</svg>
