<?xml version="1.0" encoding="UTF-8" standalone="no"?>
<!-- Created with Inkscape (http://www.inkscape.org/) -->

<svg
   width="18.520832mm"
   height="40.216667mm"
   viewBox="0 0 18.520832 40.216667"
   version="1.1"
   id="svg1"
   xmlns="http://www.w3.org/2000/svg"
   xmlns:svg="http://www.w3.org/2000/svg">
  <defs
     id="defs1" />
  <g
     id="layer1"
     transform="translate(-130.05789,-87.323125)">
    <path
       d="m 148.57872,107.4296 c 0,3.94785 -0.75829,7.44591 -2.27435,10.50502 -1.52321,3.05197 -3.67798,5.41258 -6.47462,7.08951 -2.7313,1.6338 -5.89439,2.47597 -9.50357,2.51566 -0.14499,0 -0.26829,-0.1188 -0.26829,-0.26273 v -1.97935 c 0,-0.14393 0.11615,-0.25903 0.26115,-0.25903 h 0.73263 c 2.41591,0 4.37091,-1.94336 4.37091,-4.33678 V 94.161015 c 0,-2.396861 -1.95871,-4.336786 -4.37091,-4.336786 h -0.73263 c -0.145,0 -0.26115,-0.115094 -0.26115,-0.259027 v -1.979348 c 0,-0.143933 0.1233,-0.262731 0.26829,-0.262731 3.60548,0.03969 6.77227,0.881856 9.50357,2.515658 2.79638,1.673225 4.95115,4.037542 6.47462,7.089511 1.51606,3.059112 2.27435,6.553468 2.27435,10.505018 z"
       fill="#22bc72"
       id="path34"
       style="stroke-width:0.264583" />
  </g>
</svg>
