<?xml version="1.0" encoding="UTF-8" standalone="no"?>
<!-- Created with Inkscape (http://www.inkscape.org/) -->

<svg
   width="36.983192mm"
   height="18.230024mm"
   viewBox="0 0 36.983192 18.230024"
   version="1.1"
   id="svg1"
   xmlns="http://www.w3.org/2000/svg"
   xmlns:svg="http://www.w3.org/2000/svg">
  <defs
     id="defs1">
    <filter
       id="filter2_i_68_485"
       x="441"
       y="476"
       width="139.77901"
       height="68.900902"
       filterUnits="userSpaceOnUse"
       color-interpolation-filters="sRGB">
      <feFlood
         flood-opacity="0"
         result="BackgroundImageFix"
         id="feFlood37" />
      <feBlend
         mode="normal"
         in="SourceGraphic"
         in2="BackgroundImageFix"
         result="shape"
         id="feBlend37" />
      <feColorMatrix
         in="SourceAlpha"
         type="matrix"
         values="0 0 0 0 0 0 0 0 0 0 0 0 0 0 0 0 0 0 127 0"
         result="hardAlpha"
         id="feColorMatrix37" />
      <feMorphology
         radius="3"
         operator="erode"
         in="SourceAlpha"
         result="effect1_innerShadow_68_485"
         id="feMorphology37" />
      <feOffset
         dy="6"
         id="feOffset37" />
      <feGaussianBlur
         stdDeviation="4"
         id="feGaussianBlur37" />
      <feComposite
         in2="hardAlpha"
         operator="arithmetic"
         k2="-1"
         k3="1"
         id="feComposite37"
         k1="0"
         k4="0" />
      <feColorMatrix
         type="matrix"
         values="0 0 0 0 0 0 0 0 0 0 0 0 0 0 0 0 0 0 0.1 0"
         id="feColorMatrix38" />
      <feBlend
         mode="normal"
         in2="shape"
         result="effect1_innerShadow_68_485"
         id="feBlend38" />
    </filter>
  </defs>
  <g
     id="layer1"
     transform="translate(-131.7625,-158.75)">
    <g
       filter="url(#filter2_i_68_485)"
       id="g17"
       transform="matrix(0.26458333,0,0,0.26458333,15.081254,32.80833)">
      <rect
         x="441"
         y="476"
         width="139.77901"
         height="62.9007"
         rx="31.4503"
         fill="#171c30"
         id="rect16" />
    </g>
    <path
       d="m 143.07557,168.70315 c -0.10451,0 -0.20055,-0.0254 -0.28786,-0.0762 -0.0876,-0.0508 -0.15664,-0.11986 -0.20744,-0.20743 -0.0508,-0.0873 -0.0762,-0.18336 -0.0762,-0.28787 v -2.4765 h 0.508 v 2.45957 c 0,0.0227 0.007,0.041 0.0212,0.055 0.0169,0.0143 0.0352,0.0212 0.055,0.0212 h 1.87537 c 0.0196,0 0.0365,-0.007 0.0508,-0.0212 0.0169,-0.014 0.0254,-0.0323 0.0254,-0.055 v -2.45957 h 0.51223 v 2.4765 c 0,0.10451 -0.027,0.20055 -0.0804,0.28787 -0.0508,0.0876 -0.12012,0.15663 -0.20743,0.20743 -0.0847,0.0508 -0.17939,0.0762 -0.28364,0.0762 z m 2.82628,0 v -2.45533 h 1.9304 c 0.1016,0 0.19473,0.027 0.2794,0.0804 0.0873,0.0508 0.15663,0.11853 0.20743,0.2032 0.0508,0.0847 0.0762,0.17939 0.0762,0.28363 v 1.88807 h -0.50376 v -1.87113 c 0,-0.0225 -0.008,-0.0408 -0.0254,-0.055 -0.0143,-0.0169 -0.0312,-0.0254 -0.0508,-0.0254 h -1.32927 c -0.0198,0 -0.0381,0.008 -0.055,0.0254 -0.0169,0.0143 -0.0254,0.0326 -0.0254,0.055 v 1.87113 z m 3.39831,0 c -0.10425,0 -0.19897,-0.0254 -0.28363,-0.0762 -0.0847,-0.0534 -0.15373,-0.12277 -0.20744,-0.20743 -0.0508,-0.0847 -0.0762,-0.17913 -0.0762,-0.28364 v -2.69663 h 0.508 v 2.6797 c 0,0.0228 0.007,0.0423 0.0212,0.0593 0.0169,0.0143 0.0354,0.0212 0.055,0.0212 h 0.4572 v 0.50377 z m 1.24804,0 c -0.10451,0 -0.19897,-0.0254 -0.28363,-0.0762 -0.0847,-0.0534 -0.15373,-0.12277 -0.20744,-0.20743 -0.0508,-0.0847 -0.0762,-0.17913 -0.0762,-0.28364 v -1.3208 c 0,-0.10424 0.0254,-0.19896 0.0762,-0.28363 0.0537,-0.0847 0.12277,-0.1524 0.20744,-0.2032 0.0847,-0.0534 0.17912,-0.0804 0.28363,-0.0804 h 1.3589 c 0.10716,0 0.2032,0.027 0.28787,0.0804 0.0847,0.0508 0.1524,0.11853 0.2032,0.2032 0.0508,0.0847 0.0762,0.17939 0.0762,0.28363 v 1.3208 c 0,0.10451 -0.0254,0.19897 -0.0762,0.28364 -0.0508,0.0847 -0.11854,0.15398 -0.2032,0.20743 -0.0847,0.0508 -0.18071,0.0762 -0.28787,0.0762 z m 0.0169,-0.50377 h 1.32504 c 0.0225,0 0.041,-0.007 0.055,-0.0212 0.0169,-0.0169 0.0254,-0.0365 0.0254,-0.0593 v -1.28693 c 0,-0.0225 -0.008,-0.0408 -0.0254,-0.055 -0.014,-0.0169 -0.0325,-0.0254 -0.055,-0.0254 h -1.32504 c -0.0225,0 -0.0423,0.008 -0.0593,0.0254 -0.014,0.0143 -0.0212,0.0326 -0.0212,0.055 v 1.28693 c 0,0.0228 0.007,0.0423 0.0212,0.0593 0.0169,0.0143 0.0368,0.0212 0.0593,0.0212 z m 2.80617,0.50377 c -0.10451,0 -0.19896,-0.0254 -0.28363,-0.0762 -0.0847,-0.0534 -0.15372,-0.12277 -0.20743,-0.20743 -0.0508,-0.0847 -0.0762,-0.17913 -0.0762,-0.28364 v -1.3208 c 0,-0.10424 0.0254,-0.19896 0.0762,-0.28363 0.0537,-0.0847 0.12276,-0.1524 0.20743,-0.2032 0.0847,-0.0534 0.17912,-0.0804 0.28363,-0.0804 h 1.92194 v 0.50376 h -1.905 c -0.0225,0 -0.0423,0.008 -0.0593,0.0254 -0.014,0.0143 -0.0212,0.0326 -0.0212,0.055 v 1.28693 c 0,0.0228 0.007,0.0423 0.0212,0.0593 0.0169,0.0143 0.0368,0.0212 0.0593,0.0212 h 1.90923 v 0.50377 z m 2.17752,0 v -3.25967 h 0.50377 v 1.778 h 0.4953 l 0.89747,-0.97366 h 0.5588 v 0.11853 l -1.00754,1.10913 1.00754,1.10914 v 0.11853 h -0.5588 l -0.89747,-0.97367 h -0.4953 v 0.97367 z"
       fill="#ffffff"
       id="path17"
       style="stroke-width:0.264583" />
  </g>
</svg>
