<?xml version="1.0" encoding="UTF-8"?><svg id="a" xmlns="http://www.w3.org/2000/svg" width="2000" height="2000" viewBox="0 0 2000 2000"><path d="M1837.1,1000c0,164.58-31.36,310.41-94.07,437.94-63.01,127.23-152.13,225.65-267.81,295.56-112.97,68.11-243.8,103.22-393.08,104.87-6,0-11.1-4.95-11.1-10.95v-82.52c0-6,4.8-10.8,10.8-10.8h30.31c99.92,0,180.79-81.02,180.79-180.79V446.84c0-99.92-81.02-180.79-180.79-180.79h-30.31c-6,0-10.8-4.8-10.8-10.8v-82.52c0-6,5.1-10.95,11.1-10.95,149.13,1.65,280.11,36.76,393.08,104.87,115.67,69.76,204.79,168.33,267.81,295.56,62.71,127.53,94.07,273.21,94.07,437.94v-.15Z" fill="#22bc72"/><path d="M162.9,1000c0-164.58,31.36-310.41,94.07-437.94,63.01-127.23,152.13-225.65,267.81-295.56,112.97-68.11,243.8-103.22,393.08-104.87,6,0,11.1,4.95,11.1,10.95v82.52c0,6-4.8,10.8-10.8,10.8h-30.31c-99.92,0-180.79,81.02-180.79,180.79V1553.16c0,99.92,81.02,180.79,180.79,180.79h30.31c6,0,10.8,4.8,10.8,10.8v82.52c0,6-5.1,10.95-11.1,10.95-149.13-1.65-280.11-36.76-393.08-104.87-115.67-69.76-204.79-168.33-267.81-295.56-62.71-127.53-94.07-273.21-94.07-437.94v.15Z" fill="#22bc72"/></svg>