<?xml version="1.0" encoding="UTF-8" standalone="no"?>
<svg width="619.11102" height="619.11102" viewBox="0 0 619.11102 619.11102" fill="none" version="1.1" id="svg165"
   sodipodi:docname="CLUSTER SVG COMBINED_ MAIN V3.svg" xmlns:inkscape="http://www.inkscape.org/namespaces/inkscape"
   xmlns:sodipodi="http://sodipodi.sourceforge.net/DTD/sodipodi-0.dtd" xmlns="http://www.w3.org/2000/svg"
   xmlns:svg="http://www.w3.org/2000/svg">
   <sodipodi:namedview id="namedview165" pagecolor="#ffffff" bordercolor="#000000" borderopacity="0.25"
      inkscape:showpageshadow="2" inkscape:pageopacity="0.0" inkscape:pagecheckerboard="0"
      inkscape:deskcolor="#d1d1d1" />
   <g clip-path="url(#clip0_68_289)" id="g108" transform="translate(-202.444,9.5556602)">
      <path fill-rule="evenodd" clip-rule="evenodd"
         d="M 512,572 C 662.221,572 784,450.221 784,300 784,149.779 662.221,28 512,28 361.779,28 240,149.779 240,300 c 0,150.221 121.779,272 272,272 z m 0,-97.778 c 96.22,0 174.222,-78.002 174.222,-174.222 0,-96.22 -78.002,-174.222 -174.222,-174.222 -96.22,0 -174.222,78.002 -174.222,174.222 0,96.22 78.002,174.222 174.222,174.222 z"
         fill="#d9d9d9" id="path2" />
      <g filter="url(#filter0_f_68_289)" id="g2">
         <circle cx="512" cy="300" r="259.556" fill="#08091e" id="circle2" />
      </g>
      <g opacity="0.5" id="g11" style="fill:#ffffff">
         <path
            d="M 512,28 V 572 M 502.507,28.1657 521.493,571.834 M 493.026,28.6626 530.974,571.338 M 483.568,29.49 540.432,570.51 M 474.145,30.6471 549.855,569.353 M 464.768,32.1323 559.232,567.868 M 455.448,33.9438 568.552,566.056 M 446.197,36.0796 577.803,563.921 M 437.027,38.5368 586.973,561.463 M 427.947,41.3126 596.053,558.687 M 418.971,44.4036 605.03,555.596 M 410.107,47.806 613.893,552.194 M 401.368,51.5156 622.632,548.484 M 392.763,55.528 631.237,544.472 M 384.304,59.8382 639.696,540.162 M 376,64.4411 648,535.559 M 367.862,69.3309 656.138,530.669 M 359.9,74.5018 664.101,525.498 M 352.122,79.9474 671.878,520.053 M 344.54,85.6611 679.46,514.339 M 337.162,91.6359 686.838,508.364 M 329.997,97.8646 694.004,502.135 M 323.053,104.34 700.947,495.66 M 316.34,111.053 707.66,488.947 M 309.865,117.996 714.135,482.004 M 303.636,125.162 720.364,474.838 M 297.661,132.54 726.339,467.46 M 291.947,140.122 732.053,459.878 M 286.502,147.9 737.498,452.101 M 281.331,155.862 742.669,444.138 M 276.441,164 747.559,436 M 271.838,172.304 752.162,427.696 M 267.528,180.763 756.472,419.237 M 263.516,189.368 760.484,410.632 M 259.806,198.107 764.194,401.893 M 256.404,206.971 767.596,393.03 M 253.313,215.947 770.687,384.053 M 250.537,225.027 773.463,374.973 M 248.08,234.197 775.921,365.803 M 245.944,243.448 778.056,356.552 M 244.132,252.768 779.868,347.232 m -537.221,-85.087 538.706,75.71 M 241.49,271.568 782.51,328.432 M 240.663,281.026 783.338,318.974 M 240.166,290.507 783.834,309.493 M 240,300 h 544 m -543.834,9.493 543.668,-18.986 M 240.663,318.974 783.338,281.026 M 241.49,328.432 782.51,271.568 m -539.863,66.287 538.706,-75.71 M 244.132,347.232 779.868,252.768 M 245.944,356.552 778.056,243.448 M 248.08,365.803 775.921,234.197 M 250.537,374.973 773.463,225.027 M 253.313,384.053 770.687,215.947 M 256.404,393.03 767.596,206.971 M 259.806,401.893 764.194,198.107 M 263.516,410.632 760.484,189.368 M 267.528,419.237 756.472,180.763 M 271.838,427.696 752.162,172.304 M 276.441,436 747.559,164 M 281.331,444.138 742.669,155.862 M 286.502,452.101 737.498,147.9 M 291.947,459.878 732.053,140.122 M 297.661,467.46 726.339,132.54 M 303.636,474.838 720.364,125.162 M 309.865,482.004 714.135,117.996 M 316.34,488.947 707.66,111.053 M 323.053,495.66 700.947,104.34 M 329.997,502.135 694.004,97.8646 M 337.162,508.364 686.838,91.6359 M 344.54,514.339 679.46,85.6611 M 352.122,520.053 671.878,79.9474 M 359.9,525.498 664.101,74.5017 M 367.862,530.669 656.138,69.3309 M 376,535.559 648,64.441 M 384.304,540.162 639.696,59.8382 M 392.763,544.472 631.237,55.528 M 401.368,548.484 622.632,51.5156 M 410.107,552.194 613.893,47.806 M 418.971,555.596 605.03,44.4036 M 427.947,558.687 596.053,41.3126 M 437.027,561.463 586.973,38.5368 M 446.197,563.92 577.803,36.0795 M 455.448,566.056 568.552,33.9438 M 464.768,567.868 559.232,32.1323 M 474.145,569.353 549.855,30.647 M 483.568,570.51 540.432,29.49 M 493.026,571.337 530.974,28.6625 M 502.507,571.834 521.493,28.1656"
            stroke="#e1e0dc" id="path11" style="fill:#ffffff" />
      </g>
      <circle cx="512" cy="300" r="272" stroke="#e2e2e2" id="circle3" />
      <g opacity="0.58" id="g5" style="display:inline">
         <path fill-rule="evenodd" clip-rule="evenodd"
            d="M 512,540 C 644.548,540 752,432.548 752,300 752,167.452 644.548,60 512,60 379.452,60 272,167.452 272,300 c 0,132.548 107.452,240 240,240 z m 0,-86.274 C 596.9,453.726 665.726,384.9 665.726,300 665.726,215.1 596.9,146.275 512,146.275 427.1,146.275 358.275,215.1 358.275,300 c 0,84.9 68.825,153.726 153.725,153.726 z"
            fill="#d9d9d9" id="path3" style="display:inline" />
         <g filter="url(#filter1_f_68_289)" id="g4" style="display:inline">
            <circle cx="512" cy="300" r="229.02" fill="#08091e" id="circle4" />
         </g>
      </g>
      <path fill-rule="evenodd" clip-rule="evenodd"
         d="m 512,443 c 78.977,0 143,-64.023 143,-143 0,-78.977 -64.023,-143 -143,-143 -78.977,0 -143,64.023 -143,143 0,78.977 64.023,143 143,143 z m 0,-51.405 c 50.586,0 91.595,-41.009 91.595,-91.595 0,-50.586 -41.009,-91.595 -91.595,-91.595 -50.586,0 -91.595,41.009 -91.595,91.595 0,50.586 41.009,91.595 91.595,91.595 z"
         fill="#d9d9d9" id="path5" />
      <g filter="url(#filter2_f_68_289)" id="g6" style="display:inline">
         <circle cx="512" cy="300" r="136.45799" fill="#08091e" id="circle5" />
      </g>
      <circle cx="512" cy="300" r="143" stroke="#e2e2e2" stroke-width="2" id="circle6" />
      <g filter="url(#filter3_f_68_289)" id="g7">
         <circle cx="512" cy="301" r="136.45799" fill="#08091e" id="circle7" />
      </g>
      <g opacity="0.28" id="g13">
         <mask id="mask0_68_289" maskUnits="userSpaceOnUse" x="369" y="157" width="286" height="286">
            <circle cx="512" cy="300" r="127" stroke="#000000" stroke-width="32" id="circle11" />
         </mask>
         <g mask="url(#mask0_68_289)" id="g12">
            <path
               d="m 512,157 v 286 m -4.991,-285.913 9.982,285.826 m -14.966,-285.565 19.95,285.304 m -24.923,-284.869 29.896,284.434 m -34.85,-283.825 39.804,283.216 m -44.734,-282.436 49.664,281.656 m -54.563,-280.703 59.462,279.75 m -64.326,-278.627 69.19,277.504 M 472.584,162.54 551.416,437.46 M 467.811,163.999 556.189,436.001 M 463.091,165.624 560.909,434.376 M 458.431,167.413 565.569,432.587 M 453.837,169.363 570.163,430.637 M 449.313,171.472 574.687,428.528 M 444.866,173.738 579.134,426.262 M 440.5,176.158 583.5,423.842 M 436.222,178.729 587.778,421.271 M 432.035,181.448 591.965,418.552 M 427.947,184.311 596.053,415.689 M 423.96,187.314 600.04,412.686 M 420.081,190.456 603.919,409.544 M 416.314,193.73 607.686,406.27 M 412.664,197.134 611.336,402.866 M 409.134,200.664 614.866,399.336 M 405.73,204.314 618.27,395.686 M 402.456,208.081 621.544,391.919 M 399.314,211.96 624.686,388.04 M 396.311,215.947 627.689,384.053 M 393.448,220.035 630.552,379.965 M 390.729,224.222 633.271,375.778 M 388.158,228.5 635.842,371.5 M 385.738,232.866 638.262,367.134 M 383.472,237.313 640.528,362.687 M 381.363,241.837 642.637,358.163 M 379.413,246.431 644.587,353.569 M 377.624,251.091 646.376,348.909 M 375.999,255.811 648.001,344.189 M 374.54,260.584 649.46,339.416 m -276.212,-74.011 277.504,69.19 m -278.627,-64.326 279.75,59.462 m -280.703,-54.563 281.656,49.664 m -282.436,-44.734 283.216,39.804 m -283.825,-34.85 284.434,29.896 m -284.869,-24.923 285.304,19.95 m -285.565,-14.966 285.826,9.982 M 369,300 h 286 m -285.913,4.991 285.826,-9.982 m -285.565,14.966 285.304,-19.95 m -284.869,24.923 284.434,-29.896 m -283.825,34.85 283.216,-39.804 m -282.436,44.734 281.656,-49.664 m -280.703,54.563 279.75,-59.462 m -278.627,64.326 277.504,-69.19 M 374.54,339.416 649.46,260.584 M 375.999,344.189 648.001,255.811 M 377.624,348.909 646.376,251.091 M 379.413,353.569 644.587,246.431 M 381.363,358.163 642.637,241.837 M 383.472,362.687 640.528,237.313 M 385.738,367.134 638.262,232.866 M 388.158,371.5 635.842,228.5 M 390.729,375.778 633.271,224.222 M 393.448,379.965 630.552,220.035 M 396.311,384.053 627.689,215.947 M 399.314,388.04 624.686,211.96 M 402.456,391.919 621.544,208.081 M 405.73,395.686 618.27,204.314 M 409.134,399.336 614.866,200.664 M 412.664,402.866 611.336,197.134 M 416.314,406.27 607.686,193.73 M 420.081,409.544 603.919,190.456 M 423.96,412.686 600.04,187.314 M 427.947,415.689 596.053,184.311 M 432.035,418.552 591.965,181.448 M 436.222,421.271 587.778,178.729 M 440.5,423.842 583.5,176.158 M 444.866,426.262 579.134,173.738 M 449.313,428.528 574.687,171.472 M 453.837,430.637 570.163,169.363 M 458.431,432.587 565.569,167.413 M 463.091,434.376 560.909,165.624 M 467.811,436.001 556.189,163.999 M 472.584,437.46 551.416,162.54 m -74.011,276.212 69.19,-277.504 m -64.326,278.627 59.462,-279.75 m -54.563,280.703 49.664,-281.656 m -44.734,282.436 39.804,-283.216 m -34.85,283.825 29.896,-284.434 m -24.923,284.869 19.95,-285.304 m -14.966,285.565 9.982,-285.826"
               stroke="#e1e0dc" id="path12" />
         </g>
      </g>
      <mask id="mask1_68_289" maskUnits="userSpaceOnUse" x="260" y="50" width="501" height="500">
         <circle cx="510.55301" cy="300" r="234" transform="rotate(-45,510.553,300)" stroke="#000000" stroke-width="32"
            id="circle13" />
      </mask>
      <g mask="url(#mask1_68_289)" id="g14">
         <path d="M 333.777,123.223 687.33,476.777 m -353.553,0 353.553,-353.554" stroke="#e1e0dc"
            stroke-linecap="square" id="path13" />
      </g>
      <g filter="url(#filter4_f_68_289)" id="g15">
         <circle cx="512" cy="300" r="164" fill="#08091e" id="circle14" />
      </g>
      <mask id="mask2_68_289" maskUnits="userSpaceOnUse" x="257" y="45" width="510" height="510">
         <circle cx="512" cy="300" r="238.558" transform="rotate(-45,512,300)" stroke="#000000" stroke-width="32"
            id="circle15" />
      </mask>
      <g mask="url(#mask2_68_289)" id="g16">
         <path d="M 332,120 692,480 M 332,480 692,120" stroke="#22bc73" stroke-width="3" stroke-linecap="square"
            id="path16" />
      </g>
      <g opacity="0.5" filter="url(#filter6_f_68_289)" id="g18">
         <ellipse cx="510" cy="368" rx="80" ry="3" fill="#f5f5f5" id="ellipse18" />
      </g>
      <mask id="mask3_68_289" maskUnits="userSpaceOnUse" x="770" y="11" width="32" height="33">
         <path opacity="0.9" d="m 802,11.5 h -32 v 32 h 32 z" fill="#ffffff" id="path21" />
      </mask>
      <g filter="url(#filter9_i_68_289)" id="g68">
         <path
            d="m 672,300 c 0,88.366 -71.634,160 -160,160 -88.366,0 -160,-71.634 -160,-160 0,-88.366 71.634,-160 160,-160 88.366,0 160,71.634 160,160 z m -302.757,0 c 0,78.843 63.914,142.757 142.757,142.757 78.843,0 142.757,-63.914 142.757,-142.757 0,-78.843 -63.914,-142.757 -142.757,-142.757 -78.843,0 -142.757,63.914 -142.757,142.757 z"
            fill="#2f3147" id="path68" />
      </g>
      <mask id="path-83-inside-1_68_289" fill="#ffffff">
         <path
            d="m 512,460 c -29.813,0 -59.033,-8.33 -84.365,-24.049 -25.332,-15.72 -45.768,-38.205 -59.003,-64.919 -13.236,-26.714 -18.744,-56.594 -15.905,-86.272 2.84,-29.677 13.915,-57.971 31.976,-81.69 l 13.749,10.469 c -16.111,21.157 -25.989,46.395 -28.522,72.867 -2.533,26.473 2.38,53.126 14.186,76.954 11.806,23.829 30.035,43.885 52.631,57.907 22.596,14.022 48.66,21.452 75.253,21.452 z"
            id="path73" />
      </mask>
   </g>
   <defs id="defs165">
      <filter id="filter0_f_68_289" x="202.444" y="-9.5556602" width="619.11102" height="619.11102"
         filterUnits="userSpaceOnUse" color-interpolation-filters="sRGB">
         <feFlood flood-opacity="0" result="BackgroundImageFix" id="feFlood108" />
         <feBlend mode="normal" in="SourceGraphic" in2="BackgroundImageFix" result="shape" id="feBlend108" />
         <feGaussianBlur stdDeviation="25" result="effect1_foregroundBlur_68_289" id="feGaussianBlur108" />
      </filter>
      <filter id="filter1_f_68_289" x="232.98" y="20.980499" width="558.039" height="558.039"
         filterUnits="userSpaceOnUse" color-interpolation-filters="sRGB">
         <feFlood flood-opacity="0" result="BackgroundImageFix" id="feFlood109" />
         <feBlend mode="normal" in="SourceGraphic" in2="BackgroundImageFix" result="shape" id="feBlend109" />
         <feGaussianBlur stdDeviation="25" result="effect1_foregroundBlur_68_289" id="feGaussianBlur109" />
      </filter>
      <filter id="filter2_f_68_289" x="325.54199" y="113.542" width="372.91501" height="372.91501"
         filterUnits="userSpaceOnUse" color-interpolation-filters="sRGB">
         <feFlood flood-opacity="0" result="BackgroundImageFix" id="feFlood110" />
         <feBlend mode="normal" in="SourceGraphic" in2="BackgroundImageFix" result="shape" id="feBlend110" />
         <feGaussianBlur stdDeviation="25" result="effect1_foregroundBlur_68_289" id="feGaussianBlur110" />
      </filter>
      <filter id="filter3_f_68_289" x="325.54199" y="114.542" width="372.91501" height="372.91501"
         filterUnits="userSpaceOnUse" color-interpolation-filters="sRGB">
         <feFlood flood-opacity="0" result="BackgroundImageFix" id="feFlood111" />
         <feBlend mode="normal" in="SourceGraphic" in2="BackgroundImageFix" result="shape" id="feBlend111" />
         <feGaussianBlur stdDeviation="25" result="effect1_foregroundBlur_68_289" id="feGaussianBlur111" />
      </filter>
      <filter id="filter4_f_68_289" x="268" y="56" width="488" height="488" filterUnits="userSpaceOnUse"
         color-interpolation-filters="sRGB">
         <feFlood flood-opacity="0" result="BackgroundImageFix" id="feFlood112" />
         <feBlend mode="normal" in="SourceGraphic" in2="BackgroundImageFix" result="shape" id="feBlend112" />
         <feGaussianBlur stdDeviation="40" result="effect1_foregroundBlur_68_289" id="feGaussianBlur112" />
      </filter>
      <filter id="filter6_f_68_289" x="414.60001" y="349.60001" width="190.8" height="36.799999"
         filterUnits="userSpaceOnUse" color-interpolation-filters="sRGB">
         <feFlood flood-opacity="0" result="BackgroundImageFix" id="feFlood114" />
         <feBlend mode="normal" in="SourceGraphic" in2="BackgroundImageFix" result="shape" id="feBlend114" />
         <feGaussianBlur stdDeviation="7.7" result="effect1_foregroundBlur_68_289" id="feGaussianBlur114" />
      </filter>
      <filter id="filter9_i_68_289" x="352" y="140" width="320" height="324" filterUnits="userSpaceOnUse"
         color-interpolation-filters="sRGB">
         <feFlood flood-opacity="0" result="BackgroundImageFix" id="feFlood119" />
         <feBlend mode="normal" in="SourceGraphic" in2="BackgroundImageFix" result="shape" id="feBlend120" />
         <feColorMatrix in="SourceAlpha" type="matrix" values="0 0 0 0 0 0 0 0 0 0 0 0 0 0 0 0 0 0 127 0"
            result="hardAlpha" id="feColorMatrix120" />
         <feOffset dy="4" id="feOffset120" />
         <feGaussianBlur stdDeviation="2" id="feGaussianBlur120" />
         <feComposite in2="hardAlpha" operator="arithmetic" k2="-1" k3="1" id="feComposite120" k1="0" k4="0" />
         <feColorMatrix type="matrix" values="0 0 0 0 0 0 0 0 0 0 0 0 0 0 0 0 0 0 0.25 0" id="feColorMatrix121" />
         <feBlend mode="normal" in2="shape" result="effect1_innerShadow_68_289" id="feBlend121" />
      </filter>
      <clipPath id="clip0_68_289">
         <rect width="1024" height="600" fill="#ffffff" id="rect165" x="0" y="0" />
      </clipPath>
   </defs>
</svg>